<!DOCTYPE svg PUBLIC "-//W3C//DTD SVG 1.1//EN" "http://www.w3.org/Graphics/SVG/1.1/DTD/svg11.dtd">
<!-- Uploaded to: SVG Repo, www.svgrepo.com, Transformed by: SVG Repo Mixer Tools -->
<svg fill="#faebd7" height="800px" width="800px" version="1.1" id="Layer_1" xmlns="http://www.w3.org/2000/svg" xmlns:xlink="http://www.w3.org/1999/xlink" viewBox="0 0 512.001 512.001" xml:space="preserve" stroke="#faebd7">
<g id="SVGRepo_bgCarrier" stroke-width="0"/>
<g id="SVGRepo_tracerCarrier" stroke-linecap="round" stroke-linejoin="round"/>
<g id="SVGRepo_iconCarrier"> <g> <g> <path d="M377.809,31.51C374.462,13.599,358.711,0,339.846,0c-13.669,0-25.941,7.057-32.849,18.261 c-5.17-2.473-10.87-3.788-16.671-3.788c-10.196,0-19.855,4.056-26.981,11.006c-7.126-6.949-16.785-11.006-26.981-11.006 c-14.423,0-27.455,8.167-34.058,20.44c-5.222-2.544-10.991-3.893-16.903-3.893c-3.15,0-6.294,0.391-9.344,1.151 c-5.86-14.123-19.908-23.948-35.715-23.948c-21.296,0-38.621,17.325-38.621,38.621v37.897h0.391v427.259h307.77V84.469 l0.343-6.956c0.042-0.831,0.05-7.804,0.05-7.873C410.277,50.438,396.19,34.465,377.809,31.51z M199.638,496.797h-33.557v-60.374 h-15.204v60.374H117.32V84.741h33.557v331.408h15.204V84.741h33.557v154.07c-12.616,13.675-20.342,31.928-20.342,51.958 c0,20.03,7.726,38.281,20.342,51.958V496.797z M248.398,496.796h-33.556V355.444c9.886,6.314,21.296,10.437,33.556,11.649V496.796 z M297.16,496.796h-33.557V367.094c12.261-1.211,23.673-5.337,33.557-11.65V496.796z M256.001,352.269 c-33.912,0-61.501-27.589-61.501-61.501c0.001-33.911,27.59-61.5,61.501-61.5s61.5,27.589,61.5,61.5 C317.501,324.68,289.912,352.269,256.001,352.269z M214.843,226.093V84.741h33.556v129.704 C236.139,215.656,224.729,219.781,214.843,226.093z M263.603,214.444V84.741h33.557v141.353 C287.274,219.78,275.863,215.656,263.603,214.444z M345.921,496.796h-33.557v-154.07c12.616-13.675,20.341-31.928,20.341-51.958 c0-20.03-7.725-38.282-20.341-51.957V84.741h33.557V496.796z M394.682,496.796h-33.557V84.741h33.557V496.796z M116.929,69.536 V46.843c0-12.911,10.505-23.417,23.417-23.417c11.483,0,21.436,8.545,23.15,19.875l1.597,10.556l9.453-4.963 c3.376-1.773,7.03-2.672,10.859-2.672c5.758,0,11.293,2.111,15.586,5.945l9.733,8.691l2.761-12.752 c2.313-10.679,11.935-18.431,22.88-18.431c8.404,0,16.209,4.55,20.371,11.876l6.61,11.635l6.61-11.635 c4.162-7.325,11.968-11.876,20.371-11.876c5.491,0,10.83,1.942,15.035,5.469l8.726,7.318l3.412-10.867 c3.079-9.804,12.06-16.391,22.348-16.391c12.865,0,23.34,10.43,23.416,23.278v7.962l8.396-0.221 c12.878,0,23.36,10.449,23.417,23.313H116.929z"/> </g> </g> </g>
</svg>